<svg version="1.1" id="Layer_1" xmlns="http://www.w3.org/2000/svg" xmlns:xlink="http://www.w3.org/1999/xlink" x="0px" y="0px"
	 width="100%" viewBox="0 0 500 500" enable-background="new 0 0 500 500" xml:space="preserve">
<path fill="#0CC3F0" opacity="1.000000" stroke="none" 
	d="
M269.000000,501.000000 
	C179.333359,501.000000 90.166710,501.000000 1.000048,501.000000 
	C1.000032,334.333405 1.000032,167.666794 1.000016,1.000137 
	C167.666565,1.000092 334.333130,1.000092 500.999756,1.000046 
	C500.999847,167.666519 500.999847,334.333038 500.999939,500.999786 
	C423.833344,501.000000 346.666656,501.000000 269.000000,501.000000 
M143.786942,66.266373 
	C63.729668,112.971642 23.217661,204.888321 42.034515,295.283722 
	C66.459175,412.618835 185.455414,487.431976 301.779724,458.410828 
	C415.549103,430.027100 484.583099,318.164368 459.129791,203.440689 
	C437.572235,106.276207 348.119843,35.626507 248.780151,37.378082 
	C211.592957,38.033779 176.756317,47.416836 143.786942,66.266373 
z"/>
<path fill="#FDFEFE" opacity="1.000000" stroke="none" 
	d="
M144.110779,66.095581 
	C176.756317,47.416836 211.592957,38.033779 248.780151,37.378082 
	C348.119843,35.626507 437.572235,106.276207 459.129791,203.440689 
	C484.583099,318.164368 415.549103,430.027100 301.779724,458.410828 
	C185.455414,487.431976 66.459175,412.618835 42.034515,295.283722 
	C23.217661,204.888321 63.729668,112.971642 144.110779,66.095581 
M365.370605,402.576538 
	C366.297821,402.135986 367.225067,401.695465 368.910614,401.079071 
	C373.791199,399.952454 379.302277,399.196198 379.956451,392.907654 
	C380.933624,383.514130 381.364197,374.060608 381.895721,364.625244 
	C382.141846,360.255859 380.292603,358.744812 375.745239,359.928680 
	C367.550873,362.061920 359.625061,360.835999 352.019409,356.148468 
	C351.290833,355.828918 350.562225,355.509399 349.275940,354.816742 
	C343.973969,350.846680 341.403107,345.297363 340.490601,338.669678 
	C340.263123,338.113617 340.035645,337.557587 339.686676,336.238739 
	C339.550415,334.156647 339.414185,332.074554 339.756561,329.328827 
	C339.423065,323.886993 339.089569,318.445129 338.725555,312.084991 
	C338.582794,307.386902 338.440002,302.688782 338.778015,297.333405 
	C338.778015,293.195557 338.778015,289.057709 338.778015,284.686584 
	C346.116577,286.839203 352.220886,288.860687 358.451172,290.357819 
	C361.471313,291.083557 365.076782,292.237122 367.618256,287.975555 
	C367.850830,287.722290 368.083405,287.469025 368.946014,287.005585 
	C369.062836,285.336853 369.179688,283.668152 369.316406,281.130951 
	C369.476715,275.421936 369.637024,269.712891 370.226532,263.493530 
	C370.079468,261.996552 369.932373,260.499573 369.725677,258.431519 
	C369.667938,258.053192 369.610199,257.674835 369.808990,256.640869 
	C369.158264,256.148041 368.507538,255.655212 367.224518,254.902298 
	C365.483948,254.340546 363.743378,253.778809 361.599945,252.652115 
	C360.947693,252.634888 360.295471,252.617676 359.100494,252.452103 
	C358.735168,252.367264 358.369812,252.282410 357.541199,251.720581 
	C356.913330,251.662659 356.285492,251.604736 354.893280,251.336411 
	C350.026520,250.039642 345.159790,248.742874 340.052948,246.906464 
	C338.893585,246.168564 337.734192,245.430649 336.465942,244.022110 
	C336.410553,243.345016 336.355164,242.667908 336.778259,241.324661 
	C336.407043,234.552261 336.035858,227.779877 335.616455,220.167542 
	C335.491455,216.776550 335.366425,213.385544 335.702698,209.462357 
	C335.241638,207.570007 334.780609,205.677643 333.902954,203.200989 
	C331.689667,202.315262 329.476410,201.429520 326.910675,199.940018 
	C322.152008,198.833267 317.393372,197.726501 312.086975,196.477417 
	C311.725372,196.371109 311.363739,196.264786 310.594055,195.552460 
	C306.950287,194.544525 303.306549,193.536575 298.896332,192.291428 
	C296.214111,191.817810 293.531860,191.344177 290.135681,190.837570 
	C285.562592,195.435211 286.706238,201.169571 286.797974,206.784256 
	C286.944244,215.736664 286.799194,224.693817 286.079437,233.603653 
	C284.488007,233.201904 282.896545,232.800156 280.937469,231.817841 
	C277.965759,231.175781 274.945587,228.524963 271.666962,232.568161 
	C271.361603,233.372406 271.056244,234.176636 270.016724,235.225449 
	C270.157562,242.270248 270.298401,249.315033 270.461395,257.166473 
	C270.798187,260.751373 270.167908,264.755157 274.998260,267.097412 
	C279.449799,269.696991 285.910706,268.883179 288.255676,275.877136 
	C288.337738,280.515778 288.419830,285.154419 288.137268,290.572998 
	C288.260284,291.119446 288.383270,291.665863 288.371094,293.046814 
	C288.431824,295.298431 288.492523,297.550018 288.147217,300.693268 
	C288.477753,312.245758 288.114471,323.875305 289.385437,335.323395 
	C290.217651,342.819427 293.415710,350.052765 295.698425,357.932678 
	C295.867371,358.255432 296.036285,358.578186 296.063080,359.632416 
	C299.306946,364.505554 302.550812,369.378693 305.953796,374.608521 
	C305.953796,374.608521 306.224792,374.889832 306.128418,375.574738 
	C311.557129,382.489899 317.732422,388.478851 326.556671,392.052124 
	C326.886108,392.205414 327.215546,392.358673 327.885803,393.092834 
	C330.211761,394.337799 332.405670,396.106415 334.887756,396.732239 
	C343.267242,398.845062 351.749054,400.552124 360.949036,402.563965 
	C362.216095,402.449768 363.483124,402.335571 365.370605,402.576538 
M261.012268,370.010834 
	C261.012268,370.010834 261.015747,370.015900 261.749573,369.904083 
	C265.246643,364.473846 263.841705,358.727997 262.803162,352.187836 
	C262.654602,350.561066 262.506073,348.934265 262.748077,346.467712 
	C262.394379,343.650757 262.040680,340.833832 261.655731,337.229584 
	C261.551697,335.922882 261.447662,334.616180 261.764038,332.415771 
	C261.627411,312.387451 261.500366,292.359009 261.328644,272.330994 
	C261.319183,271.223511 260.940063,270.119141 260.745361,268.074951 
	C260.623016,261.150452 260.500671,254.225937 260.750305,246.615036 
	C260.016815,244.626846 259.283295,242.638657 258.264709,240.050735 
	C257.446686,238.748306 256.628693,237.445877 255.840546,235.502625 
	C255.204422,235.027802 254.568298,234.552979 253.525284,233.639694 
	C252.733948,233.036240 251.942596,232.432785 250.979385,231.165634 
	C243.208664,228.669083 235.437958,226.172516 227.126953,223.450531 
	C226.750473,223.348953 226.373993,223.247375 225.568573,222.637283 
	C224.950912,222.592499 224.333252,222.547714 222.929779,222.283249 
	C219.149368,222.089600 215.368942,221.895950 210.937180,221.912277 
	C209.726685,225.457657 207.559616,228.976974 207.462280,232.552658 
	C206.868912,254.347794 206.724976,276.155487 206.478439,297.959564 
	C206.400024,304.895203 206.466156,311.832489 206.466156,319.690918 
	C200.239044,318.091461 194.993347,316.744110 189.130035,315.098480 
	C186.699310,313.107147 184.268585,311.115814 181.889755,308.499237 
	C181.321365,307.946136 180.752975,307.393066 179.891678,306.246216 
	C179.387283,305.266235 178.882874,304.286255 178.607590,302.621643 
	C178.025116,301.083160 177.442657,299.544708 176.770157,297.173370 
	C176.759521,286.113525 176.748886,275.053650 177.212036,263.334564 
	C177.190765,255.553360 177.169479,247.772156 177.171585,239.056427 
	C177.342194,231.367569 177.512802,223.678726 178.185196,215.351639 
	C178.171417,208.231491 178.157654,201.111328 178.179352,193.057510 
	C178.323746,187.487045 178.468140,181.916580 179.126617,175.804871 
	C179.146835,168.866470 179.167053,161.928055 179.222458,154.078079 
	C179.337250,150.497864 179.452042,146.917633 180.100891,142.850342 
	C179.909241,139.456192 179.717590,136.062042 179.456589,132.111069 
	C179.396790,131.741837 179.336990,131.372620 179.682266,130.547897 
	C178.890137,128.951080 178.098007,127.354279 176.993744,125.186859 
	C175.716843,123.728607 174.439941,122.270355 172.997849,120.150795 
	C169.258698,118.547287 165.519531,116.943779 161.057526,115.137741 
	C156.793091,113.625603 152.528641,112.113464 148.010834,110.019829 
	C147.226990,109.893677 146.443161,109.767525 145.061981,109.368332 
	C144.440109,109.158043 143.818253,108.947754 142.937271,108.099716 
	C140.615982,107.212990 138.353073,106.059319 135.952667,105.534233 
	C134.376541,105.189461 132.601822,105.752472 130.619904,106.266121 
	C130.619904,106.266121 130.368301,106.655960 129.790131,106.978653 
	C128.730331,110.233925 126.896523,113.451645 126.736450,116.750580 
	C125.704041,138.027908 125.073410,159.324402 124.242462,180.611938 
	C122.892281,215.201126 121.467262,249.787384 120.115181,284.376495 
	C118.735176,319.679749 141.092209,346.742889 172.522552,356.028534 
	C197.705719,363.468567 223.467148,368.953156 248.979568,375.274750 
	C252.644073,376.182770 255.896851,375.588165 258.497559,371.995300 
	C258.497559,371.995300 258.850098,371.807648 259.494873,371.894501 
	C260.005035,371.271759 260.515167,370.649017 261.012268,370.010834 
M213.414932,203.038559 
	C213.922791,203.705200 214.430649,204.371841 214.992874,205.726624 
	C221.136276,214.271988 229.632568,218.724823 239.957062,219.653702 
	C242.610672,219.892441 246.002716,220.597656 247.863464,216.641876 
	C249.928497,215.446808 251.993530,214.251724 254.590378,212.655502 
	C262.516968,206.469299 265.041138,198.367676 263.022034,188.695602 
	C259.977112,174.109573 246.303879,161.042328 231.637283,158.653839 
	C220.320999,156.810959 211.775879,162.034454 207.607910,173.398300 
	C207.595200,174.007416 207.582489,174.616547 207.180511,175.910385 
	C206.933441,176.929123 206.686386,177.947876 205.738571,179.201218 
	C204.401794,185.004517 204.478531,190.562744 208.726349,195.939224 
	C208.901535,196.252991 209.076721,196.566742 209.138733,197.517487 
	C209.699951,198.082474 210.261154,198.647476 211.039322,199.764297 
	C211.805069,200.643753 212.570816,201.523193 213.414932,203.038559 
M126.124374,375.898743 
	C125.680336,369.040833 124.370697,368.201080 112.999786,367.779572 
	C112.999786,378.393280 113.130760,388.998596 112.926979,399.597412 
	C112.857979,403.185913 114.164162,404.112366 117.548515,404.063629 
	C129.013931,403.898376 140.484238,404.075043 151.949829,403.915863 
	C153.610641,403.892792 155.255875,402.748138 156.908325,402.122498 
	C155.582962,400.797058 154.275772,399.452759 152.926712,398.151917 
	C151.763153,397.030060 150.551834,395.957794 149.361633,394.863617 
	C150.733322,394.241882 152.188431,393.753326 153.453369,392.961151 
	C154.726425,392.163940 156.527145,391.249786 156.833939,390.060974 
	C157.563400,387.234375 155.207397,387.456482 153.212936,386.857452 
	C150.450150,386.027679 147.961853,384.251556 145.400787,382.801605 
	C144.591049,382.343170 143.991119,381.237091 143.181732,381.100739 
	C138.498077,380.311707 136.858170,377.405579 136.943420,372.975647 
	C136.961853,372.017639 136.353897,371.047546 135.800491,369.376617 
	C132.154968,372.914551 136.559174,379.163666 130.423615,380.839050 
	C129.122025,379.471649 127.762726,378.043579 126.124374,375.898743 
M198.164490,413.833130 
	C199.197189,409.644409 200.229904,405.455688 201.262604,401.266998 
	C201.607712,401.324036 201.952820,401.381073 202.297928,401.438110 
	C202.297928,405.879639 202.297928,410.321167 202.297928,414.824158 
	C204.815964,414.824158 206.931732,414.824158 209.041382,414.824158 
	C209.041382,406.223724 209.041382,397.820343 209.041382,389.352661 
	C205.214493,389.352661 201.745270,389.352661 198.090103,389.352661 
	C197.210037,392.979797 196.353745,396.509003 195.162888,401.417084 
	C191.749176,388.349457 191.749176,388.349457 180.955154,389.587006 
	C180.955154,397.966461 180.955154,406.368805 180.955154,414.778381 
	C183.332428,414.778381 185.431656,414.778381 187.908234,414.778381 
	C187.908234,410.172058 187.908234,405.787659 187.908234,401.403290 
	C188.207977,401.359436 188.507706,401.315613 188.807449,401.271759 
	C189.930161,405.814453 191.052872,410.357178 192.233810,415.135437 
	C194.328323,414.952179 196.114792,414.795868 198.164490,413.833130 
M247.570206,415.167816 
	C251.885483,415.379883 254.571060,413.150238 255.550385,409.182739 
	C256.658386,404.693909 256.938965,399.583466 252.602097,397.036835 
	C249.861832,395.427673 245.697464,396.243683 241.608887,395.928558 
	C241.608887,394.726593 241.608887,392.141266 241.608887,389.467041 
	C239.132355,389.467041 237.063919,389.467041 234.887268,389.467041 
	C234.887268,398.080475 234.887268,406.430756 234.887268,414.495026 
	C238.993164,416.564209 242.968414,412.008850 247.570206,415.167816 
M232.079285,401.658966 
	C228.608002,395.742279 223.137177,393.672119 217.552628,396.162018 
	C212.685349,398.332123 210.346222,404.106384 212.306488,409.112518 
	C214.183533,413.906097 220.149445,416.518494 225.618652,414.941711 
	C230.888840,413.422363 233.429459,408.650055 232.079285,401.658966 
M296.089691,400.500000 
	C292.783966,395.162811 287.115845,393.545746 281.566986,396.356812 
	C277.161713,398.588531 275.194916,404.197968 277.030792,409.294403 
	C278.828491,414.284882 284.987030,416.579895 291.440613,414.917725 
	C295.913574,413.765717 295.005219,410.771851 294.576935,407.659332 
	C291.075134,408.371155 287.782715,410.771454 283.852417,407.184265 
	C286.014282,406.982544 288.344635,407.040619 288.398438,406.718506 
	C289.136810,402.297302 292.538818,404.464783 294.802368,403.798889 
	C295.486847,403.597473 295.798340,402.128143 296.089691,400.500000 
M267.570953,397.606903 
	C267.570953,403.339569 267.570953,409.072205 267.570953,414.783203 
	C270.271851,414.783203 272.361847,414.783203 274.501892,414.783203 
	C274.501892,406.187866 274.501892,397.836395 274.501892,389.479065 
	C272.094025,389.479065 270.023865,389.479065 267.570984,389.479065 
	C267.570984,392.056824 267.570984,394.353882 267.570953,397.606903 
M264.983398,409.391388 
	C264.983398,404.833221 264.983398,400.275085 264.983398,395.772522 
	C262.287506,395.772522 260.329987,395.772522 258.131226,395.772522 
	C258.131226,402.149170 258.131226,408.373383 258.131226,414.799316 
	C260.360321,414.799316 262.435486,414.799316 264.983398,414.799316 
	C264.983398,413.263824 264.983398,411.811676 264.983398,409.391388 
M261.604034,394.112823 
	C262.781525,392.639465 264.379059,391.302460 264.923981,389.623749 
	C265.133698,388.977600 262.911377,386.660919 261.863220,386.704224 
	C260.462341,386.762115 257.904358,388.547913 258.008362,389.287018 
	C258.246613,390.980011 259.798065,392.488190 261.604034,394.112823 
z"/>
<path fill="#030303" opacity="1.000000" stroke="none" 
	d="
M225.997528,223.145813 
	C226.373993,223.247375 226.750473,223.348953 227.584045,223.845551 
	C235.744492,226.770157 243.447876,229.299744 251.151245,231.829330 
	C251.942596,232.432785 252.733948,233.036240 253.734909,234.170685 
	C254.566589,235.182266 255.188644,235.662857 255.810684,236.143433 
	C256.628693,237.445877 257.446686,238.748306 258.308167,240.709351 
	C259.027191,243.345795 259.702728,245.323608 260.378296,247.301437 
	C260.500671,254.225937 260.623016,261.150452 260.479248,268.863647 
	C260.284180,289.803070 260.341370,309.953949 260.464874,330.104370 
	C260.471405,331.174500 261.037842,332.241180 261.343628,333.309479 
	C261.447662,334.616180 261.551697,335.922882 261.426605,337.917633 
	C261.584137,341.506287 261.970825,344.406891 262.357513,347.307495 
	C262.506073,348.934265 262.654602,350.561066 262.580505,352.926575 
	C261.910492,359.115540 261.463135,364.565704 261.015747,370.015900 
	C261.015747,370.015900 261.012268,370.010834 260.705933,370.008972 
	C259.883087,370.607300 259.366608,371.207458 258.850098,371.807648 
	C258.850098,371.807648 258.497559,371.995300 257.849487,372.033844 
	C252.939423,371.718231 248.552170,371.889465 244.439621,370.908783 
	C233.285706,368.248901 222.278687,364.980042 211.157440,362.174530 
	C195.230835,358.156799 178.753128,356.133667 163.747467,348.832397 
	C152.143112,343.186096 142.559738,335.212097 135.392685,324.422729 
	C124.914536,308.648834 122.185753,291.326141 123.245132,272.593262 
	C125.216949,237.725708 126.035927,202.793976 127.465820,167.894333 
	C128.302368,147.476181 129.392334,127.068405 130.368301,106.655960 
	C130.368301,106.655960 130.619904,106.266121 131.168701,106.136307 
	C135.543808,106.916824 139.370087,107.827148 143.196381,108.737473 
	C143.818253,108.947754 144.440109,109.158043 145.517014,109.771233 
	C146.736099,110.316528 147.500153,110.458931 148.264206,110.601334 
	C152.528641,112.113464 156.793091,113.625603 161.547531,115.554337 
	C165.746033,117.584656 169.454529,119.198380 173.163025,120.812103 
	C174.439941,122.270355 175.716843,123.728607 177.120422,125.836670 
	C177.923782,127.992119 178.600494,129.497757 179.277191,131.003387 
	C179.336990,131.372620 179.396790,131.741837 179.305634,132.845322 
	C179.292068,136.832184 179.429459,140.084808 179.566833,143.337418 
	C179.452042,146.917633 179.337250,150.497864 178.958649,154.859833 
	C178.667389,162.543091 178.639954,169.444611 178.612534,176.346115 
	C178.468140,181.916580 178.323746,187.487045 177.932831,193.861282 
	C177.685333,201.773331 177.684372,208.881592 177.683411,215.989868 
	C177.512802,223.678726 177.342194,231.367569 176.932068,239.860657 
	C176.707794,248.441193 176.723038,256.217499 176.738281,263.993805 
	C176.748886,275.053650 176.759521,286.113525 176.631943,297.813293 
	C177.121979,300.070892 177.750229,301.688568 178.378479,303.306274 
	C178.882874,304.286255 179.387283,305.266235 179.974915,306.863159 
	C180.651382,308.028198 181.244629,308.576355 181.837875,309.124481 
	C184.268585,311.115814 186.699310,313.107147 189.557648,315.572937 
	C194.409637,317.424622 198.766159,319.112305 203.276093,320.098053 
	C208.537354,321.247986 209.539230,320.237549 209.568710,314.959259 
	C209.651550,300.137329 209.483978,285.310486 209.812622,270.494385 
	C210.173492,254.225235 210.977570,237.965927 211.588531,221.702301 
	C215.368942,221.895950 219.149368,222.089600 223.380814,222.636459 
	C224.553741,223.041718 225.275635,223.093765 225.997528,223.145813 
z"/>
<path fill="#040404" opacity="1.000000" stroke="none" 
	d="
M368.316010,287.215790 
	C368.083405,287.469025 367.850830,287.722290 367.000793,288.043091 
	C361.279022,286.861450 356.215149,285.396790 351.057892,284.430115 
	C346.795380,283.631165 342.422577,283.420624 338.098663,282.949341 
	C337.977081,287.700348 337.846375,292.451141 337.758820,297.202789 
	C337.754059,297.462036 338.109467,297.727905 338.297211,297.990692 
	C338.440002,302.688782 338.582794,307.386902 338.497192,312.873169 
	C338.605225,319.105042 338.941589,324.548767 339.277954,329.992462 
	C339.414185,332.074554 339.550415,334.156647 339.554016,336.775665 
	C339.657196,337.874481 339.893066,338.436371 340.128937,338.998230 
	C341.403107,345.297363 343.973969,350.846680 349.607635,355.321167 
	C350.684204,356.135956 351.429047,356.446259 352.173920,356.756561 
	C359.625061,360.835999 367.550873,362.061920 375.745239,359.928680 
	C380.292603,358.744812 382.141846,360.255859 381.895721,364.625244 
	C381.364197,374.060608 380.933624,383.514130 379.956451,392.907654 
	C379.302277,399.196198 373.791199,399.952454 368.187500,400.946350 
	C366.649597,400.796661 365.834778,400.779694 364.772797,400.523743 
	C363.026367,400.433319 361.527130,400.581848 359.725616,400.721466 
	C359.020905,400.714996 358.618439,400.717438 358.073486,400.372986 
	C357.187073,399.716980 356.470093,399.275940 355.695343,399.117950 
	C331.702545,394.225311 312.732880,382.325775 301.028870,360.165833 
	C293.657410,346.208954 292.057617,331.121246 291.838654,315.677002 
	C291.725830,307.719086 291.071808,299.768829 290.710663,291.545959 
	C290.720764,290.915405 290.682556,290.554016 290.814026,289.738556 
	C290.996246,284.648041 290.660461,279.977386 291.111694,275.384003 
	C291.644958,269.955170 289.389130,267.396759 284.381165,265.633026 
	C273.301514,261.730865 273.384308,261.492218 273.055939,249.608276 
	C272.996460,247.455521 273.076324,245.289948 272.862579,243.153229 
	C272.690094,241.429382 272.171967,239.740082 271.819092,237.657288 
	C271.854614,236.523148 271.878204,235.767166 272.165283,234.814056 
	C272.652863,233.770706 272.876984,232.924484 273.505188,231.946472 
	C276.374542,232.009247 278.839844,232.203827 281.305115,232.398407 
	C282.896545,232.800156 284.488007,233.201904 286.829559,233.811981 
	C288.388000,232.718231 289.864777,231.431091 289.894257,230.111572 
	C290.065155,222.475388 289.755310,214.829163 289.886963,207.191147 
	C289.980804,201.747040 290.513062,196.310486 290.849640,190.870560 
	C293.531860,191.344177 296.214111,191.817810 299.446960,192.708176 
	C303.665741,194.136108 307.333954,195.147293 311.002136,196.158463 
	C311.363739,196.264786 311.725372,196.371109 312.547913,196.840439 
	C317.760284,198.316895 322.511719,199.430344 327.263123,200.543793 
	C329.476410,201.429520 331.689667,202.315262 334.002258,203.894928 
	C334.481506,206.390747 334.861450,208.192657 335.241394,209.994553 
	C335.366425,213.385544 335.491455,216.776550 335.398376,220.919296 
	C335.553436,228.444305 335.926605,235.217560 336.299744,241.990814 
	C336.355164,242.667908 336.410553,243.345016 336.350098,244.680603 
	C337.587158,246.041443 338.940094,246.743759 340.293030,247.446106 
	C345.159790,248.742874 350.026520,250.039642 355.351562,251.676758 
	C356.541382,252.077255 357.272919,252.137405 358.004486,252.197556 
	C358.369812,252.282410 358.735168,252.367264 359.452820,252.767288 
	C360.537689,253.127335 361.270233,253.172211 362.002808,253.217072 
	C363.743378,253.778809 365.483948,254.340546 367.569031,255.323776 
	C368.459808,256.262360 369.006134,256.779419 369.552460,257.296509 
	C369.610199,257.674835 369.667938,258.053192 369.542908,258.973053 
	C369.505859,261.011017 369.651581,262.507446 369.797302,264.003876 
	C369.637024,269.712891 369.476715,275.421936 369.041412,281.842957 
	C368.616302,284.108582 368.466156,285.662201 368.316010,287.215790 
z"/>
<path fill="#060606" opacity="1.000000" stroke="none" 
	d="
M206.439316,178.966614 
	C206.686386,177.947876 206.933441,176.929123 207.635193,175.532089 
	C208.107788,174.440933 208.125671,173.728088 208.143555,173.015228 
	C211.775879,162.034454 220.320999,156.810959 231.637283,158.653839 
	C246.303879,161.042328 259.977112,174.109573 263.022034,188.695602 
	C265.041138,198.367676 262.516968,206.469299 253.947037,212.820389 
	C251.157455,213.827164 249.011215,214.669052 246.582626,215.443542 
	C245.924225,215.445328 245.548141,215.514542 244.763138,215.389832 
	C242.562424,215.159424 240.770630,215.122925 238.750061,214.837891 
	C237.647705,214.549164 236.774170,214.509018 235.551025,214.322479 
	C234.457275,214.141312 233.713135,214.106506 232.700012,213.923447 
	C231.679581,213.450851 230.928146,213.126526 230.101395,212.500946 
	C229.321350,211.891449 228.616623,211.583191 227.690369,211.068848 
	C226.760132,210.499786 226.051392,210.136826 225.226990,209.461090 
	C223.674179,208.182800 222.237061,207.217255 220.629456,206.069565 
	C220.227737,205.648300 219.996887,205.408829 219.828171,204.844879 
	C219.286118,203.984070 218.682312,203.447342 218.065063,202.915161 
	C218.051605,202.919678 218.093063,202.911575 218.036896,202.570801 
	C214.554428,196.179459 211.128143,190.128906 207.735168,183.658310 
	C207.325409,181.814377 206.882355,180.390503 206.439316,178.966614 
z"/>
<path fill="#7E7E7E" opacity="1.000000" stroke="none" 
	d="
M130.079224,106.817307 
	C129.392334,127.068405 128.302368,147.476181 127.465820,167.894333 
	C126.035927,202.793976 125.216949,237.725708 123.245132,272.593262 
	C122.185753,291.326141 124.914536,308.648834 135.392685,324.422729 
	C142.559738,335.212097 152.143112,343.186096 163.747467,348.832397 
	C178.753128,356.133667 195.230835,358.156799 211.157440,362.174530 
	C222.278687,364.980042 233.285706,368.248901 244.439621,370.908783 
	C248.552170,371.889465 252.939423,371.718231 257.666809,372.114532 
	C255.896851,375.588165 252.644073,376.182770 248.979568,375.274750 
	C223.467148,368.953156 197.705719,363.468567 172.522552,356.028534 
	C141.092209,346.742889 118.735176,319.679749 120.115181,284.376495 
	C121.467262,249.787384 122.892281,215.201126 124.242462,180.611938 
	C125.073410,159.324402 125.704041,138.027908 126.736450,116.750580 
	C126.896523,113.451645 128.730331,110.233925 130.079224,106.817307 
z"/>
<path fill="#F9F9FA" opacity="1.000000" stroke="none" 
	d="
M126.263901,376.257141 
	C127.762726,378.043579 129.122025,379.471649 130.423615,380.839050 
	C136.559174,379.163666 132.154968,372.914551 135.800491,369.376617 
	C136.353897,371.047546 136.961853,372.017639 136.943420,372.975647 
	C136.858170,377.405579 138.498077,380.311707 143.181732,381.100739 
	C143.991119,381.237091 144.591049,382.343170 145.400787,382.801605 
	C147.961853,384.251556 150.450150,386.027679 153.212936,386.857452 
	C155.207397,387.456482 157.563400,387.234375 156.833939,390.060974 
	C156.527145,391.249786 154.726425,392.163940 153.453369,392.961151 
	C152.188431,393.753326 150.733322,394.241882 149.361633,394.863617 
	C150.551834,395.957794 151.763153,397.030060 152.926712,398.151917 
	C154.275772,399.452759 155.582962,400.797058 156.908325,402.122498 
	C155.255875,402.748138 153.610641,403.892792 151.949829,403.915863 
	C140.484238,404.075043 129.013931,403.898376 117.548515,404.063629 
	C114.164162,404.112366 112.857979,403.185913 112.926979,399.597412 
	C113.130760,388.998596 112.999786,378.393280 112.999786,367.779572 
	C124.370697,368.201080 125.680336,369.040833 126.263901,376.257141 
z"/>
<path fill="#0A0A0A" opacity="1.000000" stroke="none" 
	d="
M198.032867,414.236359 
	C196.114792,414.795868 194.328323,414.952179 192.233810,415.135437 
	C191.052872,410.357178 189.930161,405.814453 188.807449,401.271759 
	C188.507706,401.315613 188.207977,401.359436 187.908234,401.403290 
	C187.908234,405.787659 187.908234,410.172058 187.908234,414.778381 
	C185.431656,414.778381 183.332428,414.778381 180.955154,414.778381 
	C180.955154,406.368805 180.955154,397.966461 180.955154,389.587006 
	C191.749176,388.349457 191.749176,388.349457 195.162888,401.417084 
	C196.353745,396.509003 197.210037,392.979797 198.090103,389.352661 
	C201.745270,389.352661 205.214493,389.352661 209.041382,389.352661 
	C209.041382,397.820343 209.041382,406.223724 209.041382,414.824158 
	C206.931732,414.824158 204.815964,414.824158 202.297928,414.824158 
	C202.297928,410.321167 202.297928,405.879639 202.297928,401.438110 
	C201.952820,401.381073 201.607712,401.324036 201.262604,401.266998 
	C200.229904,405.455688 199.197189,409.644409 198.032867,414.236359 
z"/>
<path fill="#090909" opacity="1.000000" stroke="none" 
	d="
M247.153992,415.127869 
	C242.968414,412.008850 238.993164,416.564209 234.887268,414.495026 
	C234.887268,406.430756 234.887268,398.080475 234.887268,389.467041 
	C237.063919,389.467041 239.132355,389.467041 241.608887,389.467041 
	C241.608887,392.141266 241.608887,394.726593 241.608887,395.928558 
	C245.697464,396.243683 249.861832,395.427673 252.602097,397.036835 
	C256.938965,399.583466 256.658386,404.693909 255.550385,409.182739 
	C254.571060,413.150238 251.885483,415.379883 247.153992,415.127869 
M248.304840,403.320129 
	C246.601364,402.902710 244.897873,402.485291 243.194382,402.067902 
	C242.828781,403.740448 241.981491,405.509308 242.289032,407.047211 
	C242.457413,407.889099 245.428085,409.110168 245.673462,408.838745 
	C246.913269,407.467499 247.672836,405.662018 248.304840,403.320129 
z"/>
<path fill="#797979" opacity="1.000000" stroke="none" 
	d="
M211.262848,221.807297 
	C210.977570,237.965927 210.173492,254.225235 209.812622,270.494385 
	C209.483978,285.310486 209.651550,300.137329 209.568710,314.959259 
	C209.539230,320.237549 208.537354,321.247986 203.276093,320.098053 
	C198.766159,319.112305 194.409637,317.424622 189.866455,315.722046 
	C194.993347,316.744110 200.239044,318.091461 206.466156,319.690918 
	C206.466156,311.832489 206.400024,304.895203 206.478439,297.959564 
	C206.724976,276.155487 206.868912,254.347794 207.462280,232.552658 
	C207.559616,228.976974 209.726685,225.457657 211.262848,221.807297 
z"/>
<path fill="#595959" opacity="1.000000" stroke="none" 
	d="
M290.662354,291.815125 
	C291.071808,299.768829 291.725830,307.719086 291.838654,315.677002 
	C292.057617,331.121246 293.657410,346.208954 301.028870,360.165833 
	C312.732880,382.325775 331.702545,394.225311 355.695343,399.117950 
	C356.470093,399.275940 357.187073,399.716980 357.644775,400.519409 
	C349.576294,398.837372 341.790924,396.673065 334.013763,394.479645 
	C331.845032,393.867981 329.700562,393.170227 327.544983,392.511963 
	C327.215546,392.358673 326.886108,392.205414 326.288574,391.547791 
	C319.421936,385.658936 312.823364,380.274384 306.224792,374.889832 
	C306.224792,374.889832 305.953796,374.608521 305.932922,374.062744 
	C304.654358,371.250031 303.544342,368.883728 302.101746,366.741302 
	C300.277832,364.032532 298.183136,361.506042 296.205231,358.900940 
	C296.036285,358.578186 295.867371,358.255432 295.773590,357.270355 
	C294.903900,353.126709 293.894226,349.661499 293.025696,346.161255 
	C289.684387,332.694794 289.876556,318.956909 289.853729,305.226013 
	C289.850708,303.417175 289.007385,301.609741 288.553253,299.801636 
	C288.492523,297.550018 288.431824,295.298431 288.713257,292.602112 
	C289.591095,292.043304 290.126709,291.929199 290.662354,291.815125 
z"/>
<path fill="#090909" opacity="1.000000" stroke="none" 
	d="
M232.186401,402.031311 
	C233.429459,408.650055 230.888840,413.422363 225.618652,414.941711 
	C220.149445,416.518494 214.183533,413.906097 212.306488,409.112518 
	C210.346222,404.106384 212.685349,398.332123 217.552628,396.162018 
	C223.137177,393.672119 228.608002,395.742279 232.186401,402.031311 
M219.521927,403.039215 
	C219.926346,404.949127 220.203186,406.907837 220.891754,408.709137 
	C220.980881,408.942230 223.877319,408.760254 224.281662,408.071198 
	C225.015335,406.820862 225.565628,404.281677 224.901703,403.660950 
	C223.824814,402.654114 221.706512,402.761108 219.521927,403.039215 
z"/>
<path fill="#0C0C0C" opacity="1.000000" stroke="none" 
	d="
M296.185181,400.869812 
	C295.798340,402.128143 295.486847,403.597473 294.802368,403.798889 
	C292.538818,404.464783 289.136810,402.297302 288.398438,406.718506 
	C288.344635,407.040619 286.014282,406.982544 283.852417,407.184265 
	C287.782715,410.771454 291.075134,408.371155 294.576935,407.659332 
	C295.005219,410.771851 295.913574,413.765717 291.440613,414.917725 
	C284.987030,416.579895 278.828491,414.284882 277.030792,409.294403 
	C275.194916,404.197968 277.161713,398.588531 281.566986,396.356812 
	C287.115845,393.545746 292.783966,395.162811 296.185181,400.869812 
z"/>
<path fill="#0D0D0D" opacity="1.000000" stroke="none" 
	d="
M267.570984,397.128906 
	C267.570984,394.353882 267.570984,392.056824 267.570984,389.479065 
	C270.023865,389.479065 272.094025,389.479065 274.501892,389.479065 
	C274.501892,397.836395 274.501892,406.187866 274.501892,414.783203 
	C272.361847,414.783203 270.271851,414.783203 267.570953,414.783203 
	C267.570953,409.072205 267.570953,403.339569 267.570984,397.128906 
z"/>
<path fill="#595959" opacity="1.000000" stroke="none" 
	d="
M271.807159,238.035461 
	C272.171967,239.740082 272.690094,241.429382 272.862579,243.153229 
	C273.076324,245.289948 272.996460,247.455521 273.055939,249.608276 
	C273.384308,261.492218 273.301514,261.730865 284.381165,265.633026 
	C289.389130,267.396759 291.644958,269.955170 291.111694,275.384003 
	C290.660461,279.977386 290.996246,284.648041 290.541870,289.723938 
	C289.567322,290.039917 289.034637,289.916473 288.501923,289.793060 
	C288.419830,285.154419 288.337738,280.515778 288.531433,275.164520 
	C288.343323,268.654572 282.519226,265.444855 274.543274,266.590881 
	C270.167908,264.755157 270.798187,260.751373 270.665741,256.308075 
	C271.182465,249.644943 271.494812,243.840195 271.807159,238.035461 
z"/>
<path fill="#868686" opacity="1.000000" stroke="none" 
	d="
M338.537598,297.662048 
	C338.109467,297.727905 337.754059,297.462036 337.758820,297.202789 
	C337.846375,292.451141 337.977081,287.700348 338.098663,282.949341 
	C342.422577,283.420624 346.795380,283.631165 351.057892,284.430115 
	C356.215149,285.396790 361.279022,286.861450 366.791809,288.195251 
	C365.076782,292.237122 361.471313,291.083557 358.451172,290.357819 
	C352.220886,288.860687 346.116577,286.839203 338.778015,284.686584 
	C338.778015,289.057709 338.778015,293.195557 338.537598,297.662048 
z"/>
<path fill="#868686" opacity="1.000000" stroke="none" 
	d="
M290.492676,190.854065 
	C290.513062,196.310486 289.980804,201.747040 289.886963,207.191147 
	C289.755310,214.829163 290.065155,222.475388 289.894257,230.111572 
	C289.864777,231.431091 288.388000,232.718231 287.178497,233.834656 
	C286.799194,224.693817 286.944244,215.736664 286.797974,206.784256 
	C286.706238,201.169571 285.562592,195.435211 290.492676,190.854065 
z"/>
<path fill="#010101" opacity="1.000000" stroke="none" 
	d="
M264.983398,409.875488 
	C264.983398,411.811676 264.983398,413.263824 264.983398,414.799316 
	C262.435486,414.799316 260.360321,414.799316 258.131226,414.799316 
	C258.131226,408.373383 258.131226,402.149170 258.131226,395.772522 
	C260.329987,395.772522 262.287506,395.772522 264.983398,395.772522 
	C264.983398,400.275085 264.983398,404.833221 264.983398,409.875488 
z"/>
<path fill="#797979" opacity="1.000000" stroke="none" 
	d="
M261.553833,332.862610 
	C261.037842,332.241180 260.471405,331.174500 260.464874,330.104370 
	C260.341370,309.953949 260.284180,289.803070 260.473083,269.332825 
	C260.940063,270.119141 261.319183,271.223511 261.328644,272.330994 
	C261.500366,292.359009 261.627411,312.387451 261.553833,332.862610 
z"/>
<path fill="#949494" opacity="1.000000" stroke="none" 
	d="
M288.350220,300.247437 
	C289.007385,301.609741 289.850708,303.417175 289.853729,305.226013 
	C289.876556,318.956909 289.684387,332.694794 293.025696,346.161255 
	C293.894226,349.661499 294.903900,353.126709 295.701477,357.005920 
	C293.415710,350.052765 290.217651,342.819427 289.385437,335.323395 
	C288.114471,323.875305 288.477753,312.245758 288.350220,300.247437 
z"/>
<path fill="#9E9EA0" opacity="1.000000" stroke="none" 
	d="
M245.172073,215.583740 
	C245.548141,215.514542 245.924225,215.445328 246.615875,215.716492 
	C246.977356,216.234833 247.023224,216.412811 247.069092,216.590790 
	C246.002716,220.597656 242.610672,219.892441 239.957062,219.653702 
	C229.632568,218.724823 221.136276,214.271988 215.334930,205.361328 
	C216.414520,205.033875 217.152084,205.071701 218.203339,205.138245 
	C218.933517,205.167633 219.349960,205.168304 219.766418,205.168976 
	C219.996887,205.408829 220.227737,205.648300 220.621140,206.413254 
	C221.221756,207.938614 221.660217,208.938126 222.202789,210.251465 
	C224.205109,211.383118 226.103333,212.200928 228.369400,213.037216 
	C229.217056,212.971191 229.696884,212.886688 230.176712,212.802185 
	C230.928146,213.126526 231.679581,213.450851 232.686676,214.312927 
	C236.035477,218.684128 242.785919,219.088745 245.172073,215.583740 
z"/>
<path fill="#5B5B5C" opacity="1.000000" stroke="none" 
	d="
M207.701874,184.078354 
	C211.128143,190.128906 214.554428,196.179459 217.631714,202.567078 
	C215.967346,202.736969 214.651962,202.569794 213.336578,202.402634 
	C212.570816,201.523193 211.805069,200.643753 210.993881,199.162506 
	C210.382935,198.000641 209.817429,197.440567 209.251907,196.880508 
	C209.076721,196.566742 208.901535,196.252991 208.760162,195.285599 
	C208.429932,191.114105 208.065903,187.596222 207.701874,184.078354 
z"/>
<path fill="#929292" opacity="1.000000" stroke="none" 
	d="
M327.715393,392.802399 
	C329.700562,393.170227 331.845032,393.867981 334.013763,394.479645 
	C341.790924,396.673065 349.576294,398.837372 357.787292,400.866272 
	C358.618439,400.717438 359.020905,400.714996 359.714905,401.006042 
	C360.068237,401.671112 360.130005,402.042725 360.191742,402.414337 
	C351.749054,400.552124 343.267242,398.845062 334.887756,396.732239 
	C332.405670,396.106415 330.211761,394.337799 327.715393,392.802399 
z"/>
<path fill="#909090" opacity="1.000000" stroke="none" 
	d="
M306.176605,375.232300 
	C312.823364,380.274384 319.421936,385.658936 326.078674,391.372864 
	C317.732422,388.478851 311.557129,382.489899 306.176605,375.232300 
z"/>
<path fill="#0B0B0B" opacity="1.000000" stroke="none" 
	d="
M261.210144,394.092102 
	C259.798065,392.488190 258.246613,390.980011 258.008362,389.287018 
	C257.904358,388.547913 260.462341,386.762115 261.863220,386.704224 
	C262.911377,386.660919 265.133698,388.977600 264.923981,389.623749 
	C264.379059,391.302460 262.781525,392.639465 261.210144,394.092102 
z"/>
<path fill="#797979" opacity="1.000000" stroke="none" 
	d="
M176.975159,263.664185 
	C176.723038,256.217499 176.707794,248.441193 176.920380,240.327911 
	C177.169479,247.772156 177.190765,255.553360 176.975159,263.664185 
z"/>
<path fill="#A1A1A1" opacity="1.000000" stroke="none" 
	d="
M271.819092,237.657288 
	C271.494812,243.840195 271.182465,249.644943 270.654663,255.904755 
	C270.298401,249.315033 270.157562,242.270248 270.671509,235.113739 
	C271.518127,235.005066 271.709961,235.008118 271.901825,235.011185 
	C271.878204,235.767166 271.854614,236.523148 271.819092,237.657288 
z"/>
<path fill="#797979" opacity="1.000000" stroke="none" 
	d="
M177.934296,215.670746 
	C177.684372,208.881592 177.685333,201.773331 177.915100,194.328125 
	C178.157654,201.111328 178.171417,208.231491 177.934296,215.670746 
z"/>
<path fill="#797979" opacity="1.000000" stroke="none" 
	d="
M251.065308,231.497482 
	C243.447876,229.299744 235.744492,226.770157 227.854187,223.958267 
	C235.437958,226.172516 243.208664,228.669083 251.065308,231.497482 
z"/>
<path fill="#868686" opacity="1.000000" stroke="none" 
	d="
M336.539001,241.657745 
	C335.926605,235.217560 335.553436,228.444305 335.422485,221.339264 
	C336.035858,227.779877 336.407043,234.552261 336.539001,241.657745 
z"/>
<path fill="#797979" opacity="1.000000" stroke="none" 
	d="
M178.869568,176.075500 
	C178.639954,169.444611 178.667389,162.543091 178.941040,155.315613 
	C179.167053,161.928055 179.146835,168.866470 178.869568,176.075500 
z"/>
<path fill="#949494" opacity="1.000000" stroke="none" 
	d="
M274.770752,266.844147 
	C282.519226,265.444855 288.343323,268.654572 288.566406,274.697266 
	C285.910706,268.883179 279.449799,269.696991 274.770752,266.844147 
z"/>
<path fill="#909090" opacity="1.000000" stroke="none" 
	d="
M296.134155,359.266663 
	C298.183136,361.506042 300.277832,364.032532 302.101746,366.741302 
	C303.544342,368.883728 304.654358,371.250031 305.853363,373.884399 
	C302.550812,369.378693 299.306946,364.505554 296.134155,359.266663 
z"/>
<path fill="#949494" opacity="1.000000" stroke="none" 
	d="
M207.735168,183.658310 
	C208.065903,187.596222 208.429932,191.114105 208.672913,195.030029 
	C204.478531,190.562744 204.401794,185.004517 206.088943,179.083923 
	C206.882355,180.390503 207.325409,181.814377 207.735168,183.658310 
z"/>
<path fill="#868686" opacity="1.000000" stroke="none" 
	d="
M339.517273,329.660645 
	C338.941589,324.548767 338.605225,319.105042 338.512451,313.332336 
	C339.089569,318.445129 339.423065,323.886993 339.517273,329.660645 
z"/>
<path fill="#797979" opacity="1.000000" stroke="none" 
	d="
M261.382660,369.959991 
	C261.463135,364.565704 261.910492,359.115540 262.597595,353.336639 
	C263.841705,358.727997 265.246643,364.473846 261.382660,369.959991 
z"/>
<path fill="#868686" opacity="1.000000" stroke="none" 
	d="
M327.086914,200.241913 
	C322.511719,199.430344 317.760284,198.316895 312.821777,196.911591 
	C317.393372,197.726501 322.152008,198.833267 327.086914,200.241913 
z"/>
<path fill="#7E7E7E" opacity="1.000000" stroke="none" 
	d="
M143.066833,108.418594 
	C139.370087,107.827148 135.543808,106.916824 131.316772,105.957718 
	C132.601822,105.752472 134.376541,105.189461 135.952667,105.534233 
	C138.353073,106.059319 140.615982,107.212990 143.066833,108.418594 
z"/>
<path fill="#797979" opacity="1.000000" stroke="none" 
	d="
M173.080444,120.481445 
	C169.454529,119.198380 165.746033,117.584656 161.908966,115.655594 
	C165.519531,116.943779 169.258698,118.547287 173.080444,120.481445 
z"/>
<path fill="#797979" opacity="1.000000" stroke="none" 
	d="
M179.833862,143.093872 
	C179.429459,140.084808 179.292068,136.832184 179.340317,133.123734 
	C179.717590,136.062042 179.909241,139.456192 179.833862,143.093872 
z"/>
<path fill="#868686" opacity="1.000000" stroke="none" 
	d="
M310.798096,195.855469 
	C307.333954,195.147293 303.665741,194.136108 299.830170,192.826782 
	C303.306549,193.536575 306.950287,194.544525 310.798096,195.855469 
z"/>
<path fill="#797979" opacity="1.000000" stroke="none" 
	d="
M262.552795,346.887604 
	C261.970825,344.406891 261.584137,341.506287 261.442261,338.311279 
	C262.040680,340.833832 262.394379,343.650757 262.552795,346.887604 
z"/>
<path fill="#868686" opacity="1.000000" stroke="none" 
	d="
M281.121277,232.108124 
	C278.839844,232.203827 276.374542,232.009247 273.248444,231.933411 
	C272.416412,232.045349 272.245209,232.038559 272.074036,232.031784 
	C274.945587,228.524963 277.965759,231.175781 281.121277,232.108124 
z"/>
<path fill="#595959" opacity="1.000000" stroke="none" 
	d="
M360.570374,402.489136 
	C360.130005,402.042725 360.068237,401.671112 360.017181,401.014954 
	C361.527130,400.581848 363.026367,400.433319 364.766235,400.773376 
	C364.879333,401.570526 364.793793,401.890350 364.750183,402.221375 
	C363.483124,402.335571 362.216095,402.449768 360.570374,402.489136 
z"/>
<path fill="#868686" opacity="1.000000" stroke="none" 
	d="
M335.472046,209.728455 
	C334.861450,208.192657 334.481506,206.390747 334.210571,204.187073 
	C334.780609,205.677643 335.241638,207.570007 335.472046,209.728455 
z"/>
<path fill="#797979" opacity="1.000000" stroke="none" 
	d="
M260.564301,246.958237 
	C259.702728,245.323608 259.027191,243.345795 258.450714,241.009216 
	C259.283295,242.638657 260.016815,244.626846 260.564301,246.958237 
z"/>
<path fill="#757577" opacity="1.000000" stroke="none" 
	d="
M247.466278,216.616333 
	C247.023224,216.412811 246.977356,216.234833 246.898224,215.783890 
	C249.011215,214.669052 251.157455,213.827164 253.681122,213.020966 
	C251.993530,214.251724 249.928497,215.446808 247.466278,216.616333 
z"/>
<path fill="#757577" opacity="1.000000" stroke="none" 
	d="
M213.375763,202.720596 
	C214.651962,202.569794 215.967346,202.736969 217.687897,202.907852 
	C218.093063,202.911575 218.051605,202.919678 218.025650,203.280945 
	C217.963013,204.131332 217.926331,204.620422 217.889633,205.109528 
	C217.152084,205.071701 216.414520,205.033875 215.307739,205.017273 
	C214.430649,204.371841 213.922791,203.705200 213.375763,202.720596 
z"/>
<path fill="#868686" opacity="1.000000" stroke="none" 
	d="
M370.011902,263.748718 
	C369.651581,262.507446 369.505859,261.011017 369.572723,259.258606 
	C369.932373,260.499573 370.079468,261.996552 370.011902,263.748718 
z"/>
<path fill="#868686" opacity="1.000000" stroke="none" 
	d="
M368.631012,287.110687 
	C368.466156,285.662201 368.616302,284.108582 369.031464,282.277222 
	C369.179688,283.668152 369.062836,285.336853 368.631012,287.110687 
z"/>
<path fill="#797979" opacity="1.000000" stroke="none" 
	d="
M179.479736,130.775635 
	C178.600494,129.497757 177.923782,127.992119 177.276489,126.121979 
	C178.098007,127.354279 178.890137,128.951080 179.479736,130.775635 
z"/>
<path fill="#797979" opacity="1.000000" stroke="none" 
	d="
M178.493042,302.963959 
	C177.750229,301.688568 177.121979,300.070892 176.676956,298.229706 
	C177.442657,299.544708 178.025116,301.083160 178.493042,302.963959 
z"/>
<path fill="#868686" opacity="1.000000" stroke="none" 
	d="
M340.172974,247.176270 
	C338.940094,246.743759 337.587158,246.041443 336.404541,245.015930 
	C337.734192,245.430649 338.893585,246.168564 340.172974,247.176270 
z"/>
<path fill="#949494" opacity="1.000000" stroke="none" 
	d="
M288.319580,290.183044 
	C289.034637,289.916473 289.567322,290.039917 290.372192,290.177979 
	C290.682556,290.554016 290.720764,290.915405 290.710663,291.545959 
	C290.126709,291.929199 289.591095,292.043304 288.780884,292.184875 
	C288.383270,291.665863 288.260284,291.119446 288.319580,290.183044 
z"/>
<path fill="#929292" opacity="1.000000" stroke="none" 
	d="
M365.060394,402.398956 
	C364.793793,401.890350 364.879333,401.570526 365.013428,401.012329 
	C365.834778,400.779694 366.649597,400.796661 367.808350,401.034302 
	C367.225067,401.695465 366.297821,402.135986 365.060394,402.398956 
z"/>
<path fill="#595959" opacity="1.000000" stroke="none" 
	d="
M271.870483,232.299973 
	C272.245209,232.038559 272.416412,232.045349 272.844360,232.065216 
	C272.876984,232.924484 272.652863,233.770706 272.165283,234.814056 
	C271.709961,235.008118 271.518127,235.005066 271.038574,234.991455 
	C271.056244,234.176636 271.361603,233.372406 271.870483,232.299973 
z"/>
<path fill="#7E7E7E" opacity="1.000000" stroke="none" 
	d="
M148.137512,110.310577 
	C147.500153,110.458931 146.736099,110.316528 145.815674,109.907753 
	C146.443161,109.767525 147.226990,109.893677 148.137512,110.310577 
z"/>
<path fill="#868686" opacity="1.000000" stroke="none" 
	d="
M352.096680,356.452515 
	C351.429047,356.446259 350.684204,356.135956 349.886475,355.507751 
	C350.562225,355.509399 351.290833,355.828918 352.096680,356.452515 
z"/>
<path fill="#5B5B5C" opacity="1.000000" stroke="none" 
	d="
M207.875732,173.206757 
	C208.125671,173.728088 208.107788,174.440933 207.829834,175.189728 
	C207.582489,174.616547 207.595200,174.007416 207.875732,173.206757 
z"/>
<path fill="#949494" opacity="1.000000" stroke="none" 
	d="
M209.195312,197.199005 
	C209.817429,197.440567 210.382935,198.000641 210.885406,198.886597 
	C210.261154,198.647476 209.699951,198.082474 209.195312,197.199005 
z"/>
<path fill="#797979" opacity="1.000000" stroke="none" 
	d="
M225.783051,222.891541 
	C225.275635,223.093765 224.553741,223.041718 223.773712,222.746307 
	C224.333252,222.547714 224.950912,222.592499 225.783051,222.891541 
z"/>
<path fill="#797979" opacity="1.000000" stroke="none" 
	d="
M255.825623,235.823029 
	C255.188644,235.662857 254.566589,235.182266 253.938354,234.389923 
	C254.568298,234.552979 255.204422,235.027802 255.825623,235.823029 
z"/>
<path fill="#868686" opacity="1.000000" stroke="none" 
	d="
M357.772827,251.959076 
	C357.272919,252.137405 356.541382,252.077255 355.733704,251.781967 
	C356.285492,251.604736 356.913330,251.662659 357.772827,251.959076 
z"/>
<path fill="#868686" opacity="1.000000" stroke="none" 
	d="
M361.801392,252.934601 
	C361.270233,253.172211 360.537689,253.127335 359.724182,252.841461 
	C360.295471,252.617676 360.947693,252.634888 361.801392,252.934601 
z"/>
<path fill="#868686" opacity="1.000000" stroke="none" 
	d="
M369.680725,256.968689 
	C369.006134,256.779419 368.459808,256.262360 367.885162,255.453827 
	C368.507538,255.655212 369.158264,256.148041 369.680725,256.968689 
z"/>
<path fill="#7E7E7E" opacity="1.000000" stroke="none" 
	d="
M259.172485,371.851074 
	C259.366608,371.207458 259.883087,370.607300 260.712463,370.016693 
	C260.515167,370.649017 260.005035,371.271759 259.172485,371.851074 
z"/>
<path fill="#797979" opacity="1.000000" stroke="none" 
	d="
M181.863815,308.811859 
	C181.244629,308.576355 180.651382,308.028198 180.121353,307.160034 
	C180.752975,307.393066 181.321365,307.946136 181.863815,308.811859 
z"/>
<path fill="#868686" opacity="1.000000" stroke="none" 
	d="
M340.309753,338.833954 
	C339.893066,338.436371 339.657196,337.874481 339.614746,337.157043 
	C340.035645,337.557587 340.263123,338.113617 340.309753,338.833954 
z"/>
<path fill="#757577" opacity="1.000000" stroke="none" 
	d="
M244.763138,215.389816 
	C242.785919,219.088745 236.035477,218.684128 232.955658,214.461197 
	C233.713135,214.106506 234.457275,214.141312 235.646088,214.592102 
	C237.053436,215.034210 238.016144,215.060333 238.978851,215.086441 
	C240.770630,215.122925 242.562424,215.159424 244.763138,215.389816 
z"/>
<path fill="#757577" opacity="1.000000" stroke="none" 
	d="
M228.001572,213.018753 
	C226.103333,212.200928 224.205109,211.383118 222.606277,210.256226 
	C223.718018,209.889389 224.530334,209.831635 225.342667,209.773865 
	C226.051392,210.136826 226.760132,210.499786 227.702377,211.358017 
	C227.957779,212.241760 227.979675,212.630264 228.001572,213.018753 
z"/>
<path fill="#5B5B5C" opacity="1.000000" stroke="none" 
	d="
M225.226990,209.461090 
	C224.530334,209.831635 223.718018,209.889389 222.502197,209.942398 
	C221.660217,208.938126 221.221756,207.938614 220.791595,206.595413 
	C222.237061,207.217255 223.674179,208.182800 225.226990,209.461090 
z"/>
<path fill="#5B5B5C" opacity="1.000000" stroke="none" 
	d="
M238.750061,214.837891 
	C238.016144,215.060333 237.053436,215.034210 235.995667,214.738495 
	C236.774170,214.509018 237.647705,214.549164 238.750061,214.837891 
z"/>
<path fill="#5B5B5C" opacity="1.000000" stroke="none" 
	d="
M218.203339,205.138245 
	C217.926331,204.620422 217.963013,204.131332 218.039093,203.276428 
	C218.682312,203.447342 219.286118,203.984070 219.828171,204.844879 
	C219.349960,205.168304 218.933517,205.167633 218.203339,205.138245 
z"/>
<path fill="#5B5B5C" opacity="1.000000" stroke="none" 
	d="
M228.369400,213.037216 
	C227.979675,212.630264 227.957779,212.241760 227.923889,211.564102 
	C228.616623,211.583191 229.321350,211.891449 230.101395,212.500946 
	C229.696884,212.886688 229.217056,212.971191 228.369400,213.037216 
z"/>
<path fill="#F0F0F0" opacity="1.000000" stroke="none" 
	d="
M248.452835,403.664490 
	C247.672836,405.662018 246.913269,407.467499 245.673462,408.838745 
	C245.428085,409.110168 242.457413,407.889099 242.289032,407.047211 
	C241.981491,405.509308 242.828781,403.740448 243.194382,402.067902 
	C244.897873,402.485291 246.601364,402.902710 248.452835,403.664490 
z"/>
<path fill="#EFEFEF" opacity="1.000000" stroke="none" 
	d="
M219.774902,402.718536 
	C221.706512,402.761108 223.824814,402.654114 224.901703,403.660950 
	C225.565628,404.281677 225.015335,406.820862 224.281662,408.071198 
	C223.877319,408.760254 220.980881,408.942230 220.891754,408.709137 
	C220.203186,406.907837 219.926346,404.949127 219.774902,402.718536 
z"/>
</svg>